<svg viewBox="0 0 64 64" xmlns="http://www.w3.org/2000/svg"><g data-name="30-adobe"><rect height="62" rx="6" width="62" x="1" y="1" fill="#fff"/><path d="M57 1H7a6 6 0 00-6 6v10a22 22 0 0022 22h18a22 22 0 0022-22V7a6 6 0 00-6-6z" fill="#fff"/><path d="M57 1H7a6 6 0 00-6 6v4a6 6 0 016-6h50a6 6 0 016 6V7a6 6 0 00-6-6zm0 58H7a6 6 0 01-6-6v4a6 6 0 006 6h50a6 6 0 006-6v-4a6 6 0 01-6 6z" fill="#fff"/><path d="M38 1l23.82 59.56A5.956 5.956 0 0157 63h-8L32 19 19 51h17l4 12H7a5.956 5.956 0 01-4.82-2.44L26 1z" fill="#1b1b1b"/><path d="M47.455 59L49 63h8a5.956 5.956 0 004.82-2.44l-1.134-2.835A5.965 5.965 0 0157 59zM3.314 57.725L2.18 60.56A5.956 5.956 0 007 63h33l-1.333-4H7a5.965 5.965 0 01-3.686-1.275zM26 1l-1.6 4h15.2L38 1H26z" fill="#1b1b1b"/></g></svg>