<svg xmlns="http://www.w3.org/2000/svg" width="94.325" height="94.325" style="border-radius:15px" fill="#574DC8"><path d="M33.808 19.657c-.439-.607-1.92-.453-1.896.918-.016.037.18 1.691 2.717 7.826.292-4.98-.062-7.666-.821-8.744zm17.174 34.558a300.599 300.599 0 01-13.901-14.898v.003l-.26-.297c-1.953 5.563-4.617 12.764-6.512 17.83 6.104-1.481 13.279-2.25 20.998-2.289l-.325-.349zM14.241 71.711c-.222.717.792 1.807 1.874.963.039-.01 1.243-1.16 4.618-6.877-4.154 2.76-6.088 4.658-6.492 5.914z"/><path d="M87.268 0H7.059A7.06 7.06 0 000 7.059v80.207a7.06 7.06 0 007.059 7.06h80.208a7.06 7.06 0 007.058-7.06V7.059A7.06 7.06 0 0087.268 0zm-1.572 68.244l-.099.326c-1.43 3.832-4.287 5.996-7.865 5.98-3.991-.016-6.286-2.022-6.286-2.022a219.368 219.368 0 01-12.8-10.948 123.98 123.98 0 00-6.965-.201c-9.52 0-17.71 1.154-24.36 3.432l-.773 2.041C22.54 77.067 17.005 78.59 14.062 78.59c-.33 0-.627-.02-.885-.047a5.452 5.452 0 01-1.078-.213l-.377-.146c-1.617-.795-2.652-2.021-3.105-3.594-.92-3.193 1.049-6.609 1.455-7.261 0 0 2.861-5.127 11.955-7.806 2.809-7.459 7.498-20.044 9.674-26.583-1.754-2.148-2.643-3.318-2.648-3.328-3.459-4.799-4.514-8.86-3.15-12.086 1.293-3.054 4.387-4.275 6.012-4.518.408-.064.83-.099 1.244-.099 2.223 0 4.143.953 5.402 2.684 2.109 2.897 2.396 7.874.885 15.216-.037.174-.084.377-.145.61C43.5 36.404 51.557 45.566 61.52 54.934c1.66.123 3.324.275 4.953.453 5.586.609 9.297 1.342 9.703 1.424.156.021 5.725.841 8.404 4.785 1.303 1.924 1.688 4.223 1.116 6.648z"/><path d="M77.564 67.164c.746-.055 1.393-1.396.213-2.096-.023-.033-1.534-.734-8.09-1.79 4.088 2.861 6.562 3.968 7.877 3.886z"/></svg>