<?xml version="1.0"?>
<svg viewBox="0 0 64 64" xmlns="http://www.w3.org/2000/svg">
    <g data-name="30-adobe" id="_30-adobe">
        <rect height="62" rx="6" style="fill:#ffffff" width="62" x="1" y="1" />
        <path d="M57,1H7A6,6,0,0,0,1,7V17A22,22,0,0,0,23,39H41A22,22,0,0,0,63,17V7A6,6,0,0,0,57,1Z" style="fill:#ffffff" />
        <path d="M57,1H7A6,6,0,0,0,1,7v4A6,6,0,0,1,7,5H57a6,6,0,0,1,6,6V7A6,6,0,0,0,57,1Z" style="fill:#ffffff" />
        <path d="M57,59H7a6,6,0,0,1-6-6v4a6,6,0,0,0,6,6H57a6,6,0,0,0,6-6V53A6,6,0,0,1,57,59Z" style="fill:#ffffff" />
        <path d="M38,1,61.82,60.56A5.956,5.956,0,0,1,57,63H49L32,19,19,51H36l4,12H7a5.956,5.956,0,0,1-4.82-2.44L26,1Z" style="fill:#1B1B1B" />
        <path d="M47.455,59,49,63h8a5.956,5.956,0,0,0,4.82-2.44l-1.134-2.835A5.965,5.965,0,0,1,57,59Z" style="fill:#1B1B1B" />
        <path d="M3.314,57.725,2.18,60.56A5.956,5.956,0,0,0,7,63H40l-1.333-4H7A5.965,5.965,0,0,1,3.314,57.725Z" style="fill:#1B1B1B" />
        <polygon points="26 1 24.4 5 39.6 5 38 1 26 1" style="fill:#1B1B1B" />
    </g>
</svg>