<?xml version="1.0" encoding="iso-8859-1"?>
<!-- Generator: Adobe Illustrator 16.0.0, SVG Export Plug-In . SVG Version: 6.00 Build 0)  -->
<!DOCTYPE svg PUBLIC "-//W3C//DTD SVG 1.1//EN" "http://www.w3.org/Graphics/SVG/1.1/DTD/svg11.dtd">
<svg version="1.1" id="Capa_1" xmlns="http://www.w3.org/2000/svg" xmlns:xlink="http://www.w3.org/1999/xlink" x="0px" y="0px"
	 width="94.325px" height="94.325px" viewBox="0 0 94.325 94.325" style="enable-background:new 0 0 94.325 94.325; border-radius: 15px;"
	 xml:space="preserve" fill="#574DC8">
<g>
	<g>
		<path d="M33.808,19.657c-0.439-0.607-1.92-0.453-1.896,0.918c-0.016,0.037,0.18,1.691,2.717,7.826
			C34.921,23.421,34.567,20.735,33.808,19.657z" />
		<path d="M50.982,54.215c-5.638-5.637-10.405-10.888-13.901-14.898v0.003l-0.26-0.297c-1.953,5.563-4.617,12.764-6.512,17.83
			c6.104-1.481,13.279-2.25,20.998-2.289L50.982,54.215z"/>
		<path d="M14.241,71.711c-0.222,0.717,0.792,1.807,1.874,0.963c0.039-0.01,1.243-1.16,4.618-6.877
			C16.579,68.557,14.645,70.455,14.241,71.711z"/>
		<path d="M87.268,0H7.059C3.161,0,0,3.16,0,7.059v80.207c0,3.898,3.16,7.06,7.059,7.06h80.208c3.896,0,7.058-3.16,7.058-7.06V7.059
			C94.325,3.161,91.163,0,87.268,0z M85.696,68.244l-0.099,0.326c-1.43,3.832-4.287,5.996-7.865,5.98
			c-3.991-0.016-6.286-2.022-6.286-2.022c-4.226-3.331-8.517-7.001-12.8-10.948c-2.354-0.133-4.694-0.201-6.965-0.201
			c-9.52,0-17.71,1.154-24.36,3.432l-0.773,2.041C22.54,77.067,17.005,78.59,14.062,78.59c-0.33,0-0.627-0.02-0.885-0.047
			c-0.621-0.068-1.008-0.189-1.078-0.213l-0.377-0.146c-1.617-0.795-2.652-2.021-3.105-3.594c-0.92-3.193,1.049-6.609,1.455-7.261
			c0,0,2.861-5.127,11.955-7.806c2.809-7.459,7.498-20.044,9.674-26.583c-1.754-2.148-2.643-3.318-2.648-3.328
			c-3.459-4.799-4.514-8.86-3.15-12.086c1.293-3.054,4.387-4.275,6.012-4.518c0.408-0.064,0.83-0.099,1.244-0.099
			c2.223,0,4.143,0.953,5.402,2.684c2.109,2.897,2.396,7.874,0.885,15.216c-0.037,0.174-0.084,0.377-0.145,0.61
			C43.5,36.404,51.557,45.566,61.52,54.934c1.66,0.123,3.324,0.275,4.953,0.453c5.586,0.609,9.297,1.342,9.703,1.424
			c0.156,0.021,5.725,0.841,8.404,4.785C85.883,63.52,86.268,65.819,85.696,68.244z"/>
		<path d="M77.564,67.164c0.746-0.055,1.393-1.396,0.213-2.096c-0.023-0.033-1.534-0.734-8.09-1.79
			C73.775,66.139,76.249,67.246,77.564,67.164z"/>
			
	</g>
</g>
<g>
</g>
<g>
</g>
<g>
</g>
<g>
</g>
<g>
</g>
<g>
</g>
<g>
</g>
<g>
</g>
<g>
</g>
<g>
</g>
<g>
</g>
<g>
</g>
<g>
</g>
<g>
</g>
<g>
</g>
</svg>
